<?xml version="1.0" standalone="no"?>
<!DOCTYPE svg PUBLIC "-//W3C//DTD SVG 20010904//EN" "http://www.w3.org/TR/2001/REC-SVG-20010904/DTD/svg10.dtd">
<!-- Created using Krita: https://krita.org -->
<svg xmlns="http://www.w3.org/2000/svg" 
    xmlns:xlink="http://www.w3.org/1999/xlink"
    xmlns:krita="http://krita.org/namespaces/svg/krita"
    xmlns:sodipodi="http://sodipodi.sourceforge.net/DTD/sodipodi-0.dtd"
    width="11.52pt"
    height="11.52pt"
    viewBox="0 0 11.52 11.52">
<defs/>
<path id="shape0" transform="matrix(0.72 0 0 0.72 0.72 0.72)" fill="#ffca5f" stroke="#000000" stroke-opacity="0" stroke-width="0" stroke-linecap="square" stroke-linejoin="bevel" d="M2 0C0.895431 -1.11022e-16 4.44089e-16 0.895431 2.22045e-16 2C0.000553745 2.71398 0.381677 3.37351 1 3.7305L1 10.2715C0.382295 10.6281 0.00126698 11.2867 0 12C4.44089e-16 13.1046 0.895431 14 2 14C2.71398 13.9994 3.37351 13.6183 3.7305 13L10.2715 13C10.6281 13.6177 11.2867 13.9987 12 14C13.1046 14 14 13.1046 14 12C14.0001 11.2725 13.6052 10.6024 12.9688 10.25L13 10.25L13 3.7285C13.6178 3.37187 13.9988 2.71326 14 2C14 0.895431 13.1046 4.44089e-16 12 4.44089e-16C11.2861 0.000553745 10.6265 0.381677 10.2695 1L3.72855 1C3.37192 0.382295 2.71331 0.00126698 2.00005 6.66134e-16ZM4.4141 3L10.2715 3C10.4463 3.30301 10.6975 3.55488 11 3.73047L11 9.58597L4.41412 3.00007ZM3 4.4141L9.5859 11L3.7285 11C3.55372 10.697 3.30252 10.4451 2.99998 10.2695L2.99998 4.41403Z"/><path id="shape1" transform="translate(1.68644970002212, 1.54326057454854)" fill="none" stroke="#ffca5f" stroke-width="0.72" stroke-linecap="square" stroke-linejoin="miter" stroke-miterlimit="2" d="M7.93904 0L0 8.1936"/><path id="shape2" transform="translate(1.7978190198349, 1.73417940851331)" fill="none" stroke="#ffca5f" stroke-width="0.72" stroke-linecap="square" stroke-linejoin="miter" stroke-miterlimit="2" d="M0 7.95495L8.00268 0"/><path id="shape3" transform="translate(1.8137289226653, 1.71826950568292)" fill="none" stroke="#ffca5f" stroke-width="0.72" stroke-linecap="square" stroke-linejoin="miter" stroke-miterlimit="2" d="M7.82767 0L0 8.14587"/>
</svg>
